<?xml version="1.0" encoding="UTF-8" standalone="no"?>
<svg width="459px" height="462px" viewBox="0 0 459 462" version="1.1" xmlns="http://www.w3.org/2000/svg" xmlns:xlink="http://www.w3.org/1999/xlink" xmlns:sketch="http://www.bohemiancoding.com/sketch/ns">
    <!-- Generator: Sketch 3.3.2 (12043) - http://www.bohemiancoding.com/sketch -->
    <title>MyPlate-Diagram</title>
    <desc>Created with Sketch.</desc>
    <defs></defs>
    <g id="Onboarding" stroke="none" stroke-width="1" fill="none" fill-rule="evenodd" sketch:type="MSPage">
        <g id="Desktop" sketch:type="MSArtboardGroup" transform="translate(-298.000000, -209.000000)">
            <g id="MyPlate-Diagram" sketch:type="MSLayerGroup" transform="translate(298.000000, 209.000000)">
                <path d="M455.464871,70.0406265 C455.464871,33.576843 425.880637,4.0172123 389.386504,4.0172123 C353.462012,4.0172123 324.253174,32.6674837 323.349605,68.3462087 C291.454069,48.8680367 253.962518,37.6373397 213.843198,37.6373397 C97.7084386,37.6373397 3.56051577,131.704786 3.56051577,247.745145 C3.56051577,363.785504 97.7084386,457.85295 213.843198,457.85295 C329.98014,457.85295 424.128063,363.785504 424.128063,247.745145 C424.128063,206.677866 412.322742,168.369195 391.937885,136.0008 C427.246902,134.659658 455.464871,105.649569 455.464871,70.0406265" id="Fill-51" fill="#FFFFFF" sketch:type="MSShapeGroup"></path>
                <path d="M213.843198,461.31593 C95.9842375,461.31593 0.0968360174,365.508271 0.0968360174,247.745145 C0.0968360174,129.982019 95.9842375,34.1765404 213.843198,34.1765404 C251.317288,34.1765404 287.983841,43.9483372 320.263503,62.493162 C323.993452,27.3269056 353.320147,0.554232328 389.386504,0.554232328 C427.733607,0.554232328 458.930733,31.7275943 458.930733,70.0406265 C458.930733,105.597231 432.528632,134.851562 397.832906,139.005829 C417.31856,171.856163 427.591743,209.329619 427.591743,247.745145 C427.591743,365.508271 331.704341,461.31593 213.843198,461.31593 L213.843198,461.31593 Z M213.843198,41.1003197 C99.8036702,41.1003197 7.02637805,133.800456 7.02637805,247.745145 C7.02637805,361.689834 99.8036702,454.392151 213.843198,454.392151 C327.884908,454.392151 420.662201,361.689834 420.662201,247.745145 C420.662201,208.729922 409.714615,170.728732 389.00456,137.843507 L385.80715,132.768976 L391.80475,132.542181 C425.559804,131.259919 452.001191,103.804681 452.001191,70.0406265 C452.001191,35.5438505 423.911992,7.47801156 389.386504,7.47801156 C355.164387,7.47801156 327.677568,34.2528656 326.813285,68.4312567 L326.66269,74.4260502 L321.54465,71.2989007 C289.1886,51.5415968 251.94804,41.1003197 213.843198,41.1003197 L213.843198,41.1003197 Z" id="Fill-52" fill="#ECECEC" sketch:type="MSShapeGroup"></path>
                <path d="M389.386504,109.683897 C367.508794,109.683897 349.708055,91.9023232 349.708055,70.0406265 C349.708055,48.1811106 367.508794,30.3951757 389.386504,30.3951757 C411.264214,30.3951757 429.064952,48.1811106 429.064952,70.0406265 C429.064952,91.9023232 411.264214,109.683897 389.386504,109.683897" id="Fill-53" fill="#00ADEE" sketch:type="MSShapeGroup"></path>
                <path d="M203.912673,224.232645 L203.912673,67.8141136 C120.976422,71.1331662 48.0143464,137.00393 35.5368057,224.232645 L203.912673,224.232645" id="Fill-55" fill="#EC1C24" sketch:type="MSShapeGroup"></path>
                <path d="M203.912673,224.232645 L203.912673,67.8141136 C120.976422,71.1331662 48.0143464,137.00393 35.5368057,224.232645 L203.912673,224.232645" id="Fill-55-Copy" fill="#EC1C24" sketch:type="MSShapeGroup"></path>
                <path d="M212.642805,427.793935 C302.126655,426.681769 374.429606,361.617871 389.032933,278.750592 L212.642805,278.750592 L212.642805,427.793935" id="Fill-56" fill="#652D90" sketch:type="MSShapeGroup"></path>
                <path d="M212.642805,67.6963548 L212.642805,267.847002 L390.399199,267.847002 C391.283125,263.485567 391.189276,254.232781 391.189276,246.744196 C391.189276,148.206278 310.856787,68.9415447 212.642805,67.6963548" id="Fill-57" fill="#F6921E" sketch:type="MSShapeGroup"></path>
                <path d="M32.5608283,237.405256 C32.3398363,241.058865 32.2277411,244.741811 32.2277411,248.450899 C32.2277411,344.380702 107.210176,422.823308 201.84501,428.530476 L201.84501,237.405256 L32.5608283,237.405256 Z" id="Oval-3" stroke="#37B34A" stroke-width="3" fill="#37B34A" sketch:type="MSShapeGroup"></path>
            </g>
        </g>
    </g>
</svg>